<svg width="19" height="19" viewBox="0 0 19 19" fill="none" xmlns="http://www.w3.org/2000/svg">
<g id="&#208;&#154;&#208;&#176;&#209;&#130;&#208;&#176;&#208;&#187;&#208;&#190;&#208;&#179;">
<path id="Vector" fill-rule="evenodd" clip-rule="evenodd" d="M15.8333 2.53333H10.1333V8.86666H16.4667V3.16666C16.4667 2.81689 16.1831 2.53333 15.8333 2.53333ZM16.4667 10.1333H10.1333V16.4667H15.8333C16.1831 16.4667 16.4667 16.1831 16.4667 15.8333V10.1333ZM8.86666 8.86666V2.53333H3.16666C2.81689 2.53333 2.53333 2.81689 2.53333 3.16666V8.86666H8.86666ZM2.53333 10.1333V15.8333C2.53333 16.1831 2.81689 16.4667 3.16666 16.4667H8.86666V10.1333H2.53333ZM3.16666 1.26666C2.11732 1.26666 1.26666 2.11732 1.26666 3.16666V15.8333C1.26666 16.8826 2.11732 17.7333 3.16666 17.7333H15.8333C16.8826 17.7333 17.7333 16.8826 17.7333 15.8333V3.16666C17.7333 2.11732 16.8826 1.26666 15.8333 1.26666H3.16666Z" fill="black"/>
</g>
</svg>
