<svg width="17" height="17" viewBox="0 0 17 17" fill="none" xmlns="http://www.w3.org/2000/svg">
<path id="Vector" fill-rule="evenodd" clip-rule="evenodd" d="M12.3636 6.95455C12.3636 9.94191 9.94191 12.3636 6.95455 12.3636C3.96718 12.3636 1.54545 9.94191 1.54545 6.95455C1.54545 3.96718 3.96718 1.54545 6.95455 1.54545C9.94191 1.54545 12.3636 3.96718 12.3636 6.95455ZM11.2955 12.3882C10.1057 13.3401 8.59661 13.9091 6.95455 13.9091C3.11366 13.9091 0 10.7954 0 6.95455C0 3.11366 3.11366 0 6.95455 0C10.7954 0 13.9091 3.11366 13.9091 6.95455C13.9091 8.59661 13.3401 10.1057 12.3882 11.2955L16.7737 15.6808C17.0754 15.9826 17.0754 16.4719 16.7737 16.7737C16.4719 17.0754 15.9826 17.0754 15.6808 16.7737L11.2955 12.3882Z" fill="black"/>
</svg>
