<svg width="21" height="21" viewBox="0 0 21 21" fill="none" xmlns="http://www.w3.org/2000/svg">
<g id="&#208;&#150;&#208;&#181;&#208;&#187;&#208;&#176;&#208;&#189;&#208;&#184;&#209;&#143;">
<g id="Group">
<path id="Vector" d="M19.5301 6.27373C19.4242 5.85923 19.2607 5.46162 19.0445 5.09248C18.8367 4.70848 18.5711 4.35876 18.257 4.05561C17.8015 3.60166 17.2621 3.24059 16.6688 2.99248C15.4747 2.50238 14.1355 2.50238 12.9413 2.99248C12.3806 3.22983 11.8654 3.56293 11.4188 3.97686L11.3532 4.05561L10.5001 4.90873L9.64696 4.05561L9.58134 3.97686C9.13476 3.56293 8.61958 3.22983 8.05884 2.99248C6.86467 2.50238 5.52551 2.50238 4.33134 2.99248C3.73806 3.24059 3.19868 3.60166 2.74321 4.05561C2.12025 4.66176 1.67926 5.43008 1.47009 6.27373C1.35881 6.70216 1.30583 7.14364 1.31259 7.58623C1.31259 8.0023 1.36509 8.41705 1.47009 8.81998C1.58012 9.22692 1.73876 9.61912 1.94259 9.98811C2.16271 10.3674 2.43191 10.7161 2.74321 11.025L10.5001 18.7819L18.257 11.025C18.568 10.7192 18.8345 10.3687 19.0445 9.98811C19.4707 9.25981 19.6929 8.4301 19.6876 7.58623C19.6944 7.14364 19.6414 6.70215 19.5301 6.27373ZM18.2176 8.41311C18.0604 9.01281 17.748 9.56055 17.312 10.0012L10.4738 16.8262L3.63571 10.0012C3.41288 9.77682 3.21888 9.52551 3.05821 9.25311C2.90702 8.98362 2.78808 8.69728 2.70384 8.39998C2.63658 8.10273 2.60138 7.79912 2.59884 7.49436C2.60062 7.18089 2.63581 6.86849 2.70384 6.56248C2.78561 6.26434 2.90467 5.9777 3.05821 5.70936C3.21571 5.43373 3.40996 5.18436 3.63571 4.96123C3.97289 4.62857 4.369 4.36153 4.80384 4.17373C5.68008 3.8232 6.65759 3.8232 7.53384 4.17373C7.96696 4.35355 8.35809 4.61736 8.68884 4.94811L10.4738 6.74623L12.2588 4.94811C12.5894 4.61677 12.9818 4.35366 13.4138 4.17373C14.2901 3.8232 15.2676 3.8232 16.1438 4.17373C16.5783 4.36142 16.9746 4.62917 17.312 4.96123C17.5403 5.1778 17.732 5.4298 17.8763 5.70936C18.1803 6.24547 18.3387 6.85181 18.3357 7.46811C18.3536 7.78524 18.3271 8.10331 18.257 8.41311H18.2176Z" fill="black"/>
</g>
</g>
</svg>

