<svg width="19" height="19" viewBox="0 0 19 19" fill="none" xmlns="http://www.w3.org/2000/svg">
<g id="&#208;&#159;&#209;&#128;&#208;&#190;&#209;&#132;&#208;&#184;&#208;&#187;&#209;&#140;">
<path id="Vector" fill-rule="evenodd" clip-rule="evenodd" d="M9.50006 1.29828C7.06909 1.29828 5.0984 3.26897 5.0984 5.69994C5.0984 8.13092 7.06909 10.1016 9.50006 10.1016C11.931 10.1016 13.9017 8.13092 13.9017 5.69994C13.9017 3.26897 11.931 1.29828 9.50006 1.29828ZM6.30173 5.69994C6.30173 3.93355 7.73367 2.50161 9.50006 2.50161C11.2665 2.50161 12.6984 3.93355 12.6984 5.69994C12.6984 7.46634 11.2665 8.89828 9.50006 8.89828C7.73367 8.89828 6.30173 7.46634 6.30173 5.69994ZM3.7684 17.2265C3.7684 15.2521 4.3339 13.8787 5.27342 12.9937C6.21912 12.1028 7.63373 11.6215 9.49997 11.6215C11.3662 11.6215 12.7808 12.1028 13.7267 12.9937C14.6661 13.8787 15.2317 15.2522 15.2317 17.2265C15.2317 17.5589 15.501 17.8282 15.8334 17.8282C16.1656 17.8282 16.435 17.5589 16.435 17.2265C16.435 15.021 15.7971 13.291 14.5518 12.1178C13.3125 10.9503 11.5604 10.4182 9.49997 10.4182C7.43956 10.4182 5.68755 10.9503 4.44829 12.1178C3.20286 13.291 2.56506 15.021 2.56506 17.2265C2.56506 17.5589 2.83445 17.8282 3.16673 17.8282C3.49903 17.8282 3.7684 17.5589 3.7684 17.2265Z" fill="black"/>
</g>
</svg>
